<svg xmlns="http://www.w3.org/2000/svg" viewBox="0 0 320 240" role="img" aria-label="CCI — Ceramic Coating Inc">
  <g fill="#F26B1F">
    <path d="M85 20 C45 20 18 50 18 95 L18 105 C18 150 45 180 85 180 L120 180 L120 140 L92 140 C75 140 64 128 64 105 L64 95 C64 72 75 60 92 60 L120 60 L120 20 Z"/>
    <path d="M205 20 C165 20 138 50 138 95 L138 105 C138 150 165 180 205 180 L240 180 L240 140 L212 140 C195 140 184 128 184 105 L184 95 C184 72 195 60 212 60 L240 60 L240 20 Z"/>
    <rect x="258" y="60" width="44" height="120" rx="6"/>
    <circle cx="280" cy="36" r="18"/>
  </g>
  <g>
    <rect x="0" y="195" width="320" height="45" rx="4" fill="#5C5C5C"/>
    <text x="160" y="225" text-anchor="middle" font-family="'Barlow', 'Helvetica Neue', Arial, sans-serif" font-weight="800" font-size="22" letter-spacing="2" fill="#FFFFFF">CERAMIC COATING INC</text>
  </g>
</svg>
